<svg id="svg" version="1.1" xmlns="http://www.w3.org/2000/svg" xmlns:xlink="http://www.w3.org/1999/xlink" width="400" height="94.55909943714822" viewBox="0, 0, 400,94.55909943714822"><g id="svgg"><path id="path0" d="M38.000 37.747 C 34.394 38.399,33.067 38.839,31.403 39.931 C 30.788 40.336,30.219 40.667,30.140 40.667 C 29.878 40.667,28.105 42.202,27.659 42.815 C 27.418 43.146,26.928 43.685,26.569 44.013 C 22.891 47.374,21.165 55.640,22.882 61.667 C 27.822 78.996,51.258 79.658,57.098 62.633 C 61.486 49.842,50.472 35.491,38.000 37.747 M74.083 37.779 C 67.621 38.585,63.664 42.149,62.970 47.789 C 62.246 53.667,64.954 56.644,73.250 59.089 C 79.389 60.898,80.578 61.372,81.728 62.468 C 82.953 63.637,83.316 65.204,82.685 66.595 C 81.050 70.195,72.700 69.751,66.017 65.709 C 64.252 64.642,64.391 64.556,62.826 67.681 C 61.347 70.635,61.354 70.550,62.530 71.320 C 68.891 75.485,79.678 76.426,85.417 73.318 C 91.329 70.115,92.226 60.924,87.010 56.987 C 85.080 55.530,82.951 54.685,77.333 53.148 C 71.492 51.549,69.774 50.236,70.049 47.578 C 70.530 42.915,78.536 42.352,85.038 46.525 C 86.102 47.207,86.102 47.207,87.561 44.499 C 89.128 41.590,89.125 41.685,87.669 40.835 C 83.455 38.374,78.410 37.239,74.083 37.779 M105.802 37.846 C 98.819 38.871,94.391 43.957,95.088 50.154 C 95.628 54.958,97.984 56.895,106.250 59.328 C 113.610 61.495,115.167 62.507,115.167 65.125 C 115.167 70.234,105.993 70.403,97.762 65.445 C 96.490 64.679,96.536 64.643,95.086 67.506 C 93.623 70.393,93.606 70.500,94.514 71.158 C 99.488 74.760,109.589 76.260,115.452 74.266 C 120.329 72.608,122.965 68.662,122.583 63.594 C 122.151 57.876,119.399 55.753,108.750 52.922 C 104.554 51.807,102.910 50.806,102.402 49.057 C 100.772 43.451,109.730 41.809,116.979 46.385 C 118.319 47.231,118.256 47.274,119.771 44.493 C 121.301 41.684,121.301 41.694,119.874 40.846 C 115.576 38.292,110.352 37.179,105.802 37.846 M144.941 38.083 C 144.609 38.415,144.510 73.896,144.839 74.511 C 145.050 74.905,151.083 75.017,151.467 74.633 C 151.615 74.485,151.667 72.927,151.667 68.654 C 151.667 63.485,151.696 62.850,151.942 62.645 C 152.157 62.467,153.374 62.396,157.484 62.322 C 164.119 62.202,165.400 61.840,168.060 59.335 C 175.124 52.683,172.242 40.851,162.917 38.221 C 161.397 37.793,145.354 37.670,144.941 38.083 M42.417 44.083 C 50.289 45.729,53.746 56.732,48.767 64.291 C 45.226 69.666,37.749 70.567,33.100 66.178 C 26.535 59.981,28.629 47.043,36.591 44.607 C 37.137 44.440,37.883 44.203,38.250 44.081 C 39.142 43.783,40.985 43.784,42.417 44.083 M162.139 44.576 C 166.291 46.876,165.815 54.787,161.445 56.084 C 160.151 56.469,152.402 56.447,151.971 56.058 C 151.610 55.730,151.494 44.968,151.844 44.313 C 152.016 43.992,152.172 43.982,156.636 44.032 L 161.250 44.083 162.139 44.576 M222.794 47.339 C 220.536 47.719,218.600 48.733,216.879 50.438 C 215.179 52.121,215.000 52.034,215.000 49.517 C 215.000 48.199,214.960 47.990,214.678 47.839 C 214.211 47.590,209.787 47.613,209.533 47.867 C 209.187 48.213,209.249 85.765,209.597 85.899 C 210.117 86.098,215.589 86.011,215.800 85.800 C 215.949 85.651,216.000 83.800,216.000 78.499 C 216.000 69.819,215.900 70.179,217.775 72.100 C 224.069 78.546,234.453 75.048,236.832 65.680 C 239.462 55.322,232.146 45.764,222.794 47.339 M256.583 47.262 C 256.400 47.303,255.838 47.417,255.333 47.516 C 253.640 47.847,251.802 48.875,250.288 50.339 C 248.404 52.161,248.333 52.134,248.333 49.576 C 248.333 48.200,248.295 47.991,248.011 47.839 C 247.607 47.623,243.173 47.615,242.833 47.830 C 242.520 48.028,242.361 85.095,242.670 85.674 C 242.887 86.079,248.859 86.188,249.115 85.792 C 249.189 85.677,249.287 82.290,249.333 78.264 C 249.392 73.108,249.471 70.926,249.602 70.883 C 249.704 70.849,250.416 71.444,251.185 72.206 C 256.808 77.776,265.977 75.689,269.297 68.083 C 272.919 59.790,269.262 50.167,261.583 47.780 C 260.301 47.382,257.391 47.080,256.583 47.262 M176.792 47.847 C 176.445 48.048,176.345 64.519,176.673 67.142 C 177.378 72.761,180.042 75.254,185.333 75.247 C 189.139 75.241,191.690 74.238,194.358 71.699 C 195.927 70.207,196.333 70.096,196.333 71.161 C 196.333 73.898,198.773 75.525,202.230 75.093 C 203.649 74.916,203.667 74.878,203.667 71.986 C 203.667 69.646,203.645 69.479,203.311 69.207 C 203.115 69.047,202.759 68.754,202.519 68.556 L 202.083 68.196 202.000 58.207 C 201.932 50.078,201.874 48.166,201.688 47.942 C 201.354 47.541,195.829 47.529,195.429 47.929 C 195.198 48.160,195.167 49.156,195.167 56.364 L 195.167 64.537 194.647 65.512 C 192.621 69.313,187.371 70.892,184.917 68.438 C 183.395 66.917,183.440 67.246,183.339 56.952 C 183.262 49.231,183.215 47.966,183.000 47.830 C 182.661 47.616,177.162 47.631,176.792 47.847 M272.505 47.827 C 272.188 48.028,271.691 46.712,280.284 68.417 C 281.155 70.617,282.084 72.999,282.347 73.710 L 282.827 75.004 282.394 76.377 C 281.117 80.427,279.820 81.451,276.725 80.852 C 275.533 80.621,275.500 80.691,275.500 83.436 C 275.500 86.274,275.550 86.412,276.673 86.652 C 279.521 87.263,282.819 86.542,284.978 84.835 C 286.797 83.397,287.497 82.166,289.091 77.600 C 289.670 75.941,290.552 73.421,291.052 72.000 C 296.831 55.552,299.333 48.337,299.333 48.125 C 299.333 47.722,298.969 47.667,296.309 47.667 C 293.440 47.667,293.263 47.726,292.939 48.795 C 290.617 56.462,287.085 67.672,286.900 67.958 C 286.330 68.844,286.485 69.205,282.427 57.500 C 280.517 51.988,279.047 47.997,278.883 47.875 C 278.546 47.624,272.892 47.582,272.505 47.827 M225.244 53.331 C 233.576 56.198,231.304 70.340,222.628 69.614 C 220.068 69.400,217.044 67.004,216.194 64.517 C 215.852 63.518,215.943 57.725,216.312 56.917 C 217.720 53.840,221.875 52.172,225.244 53.331 M257.231 52.996 C 263.603 54.039,266.041 62.406,261.443 67.446 C 258.131 71.076,252.135 69.902,249.789 65.164 C 249.153 63.881,249.082 57.980,249.687 56.793 C 251.000 54.220,254.365 52.527,257.231 52.996 " stroke="none" fill="#2c3c64" fill-rule="evenodd"></path><path id="path1" d="M363.500 10.159 C 358.724 11.177,355.779 13.690,351.675 20.247 C 349.702 23.398,348.368 29.031,348.738 32.644 C 349.352 38.642,356.421 38.405,356.770 32.375 C 356.921 29.752,357.381 29.002,358.838 29.001 C 360.530 28.999,361.216 31.130,360.661 34.667 C 359.683 40.899,352.483 43.019,346.767 38.758 C 342.781 35.786,338.990 35.046,333.000 36.069 C 327.164 37.067,313.010 37.401,310.750 36.595 C 304.383 34.324,302.541 28.006,306.943 23.538 C 310.731 19.695,315.845 20.235,318.317 24.739 C 321.033 29.689,327.880 26.876,325.768 21.678 C 322.169 12.822,310.420 10.117,302.587 16.341 C 293.749 23.364,294.782 37.266,304.547 42.728 C 306.377 43.751,307.393 44.643,307.966 45.729 L 308.417 46.583 308.464 55.558 C 308.518 65.903,308.589 65.303,306.853 69.212 C 304.776 73.890,304.501 75.270,304.500 81.042 C 304.500 85.319,304.548 85.457,305.975 85.258 C 307.740 85.013,309.287 83.912,310.081 82.333 C 311.488 79.540,313.703 77.449,316.531 76.246 C 320.229 74.672,320.542 74.450,322.181 72.231 C 324.571 68.995,323.701 69.167,337.711 69.167 C 353.822 69.167,352.662 68.648,357.367 77.957 C 360.146 83.457,360.367 83.810,361.395 84.413 C 362.760 85.213,364.135 85.247,364.694 84.496 C 365.021 84.055,364.977 84.509,366.663 64.583 C 368.452 43.442,368.492 43.024,368.818 42.167 C 369.737 39.748,371.498 38.078,373.917 37.332 C 374.313 37.210,376.273 37.077,378.750 37.004 C 384.560 36.834,385.239 36.528,386.674 33.421 C 387.998 30.556,388.347 29.076,388.453 25.873 C 388.601 21.406,388.412 21.157,384.738 20.986 C 381.446 20.833,380.812 20.464,380.328 18.417 C 379.961 16.868,378.736 14.576,377.743 13.584 C 375.089 10.929,367.943 9.211,363.500 10.159 M36.500 37.828 C 35.022 38.147,34.049 38.471,34.517 38.489 C 34.664 38.495,35.009 38.421,35.285 38.325 C 35.561 38.229,36.566 38.012,37.518 37.843 C 38.596 37.652,38.998 37.533,38.583 37.530 C 38.217 37.526,37.279 37.661,36.500 37.828 M41.836 37.553 C 41.884 37.604,42.709 37.804,43.669 37.999 C 59.242 41.155,63.303 63.210,49.944 72.073 C 34.801 82.119,16.246 65.483,23.770 48.607 C 24.710 46.499,24.786 46.287,24.368 46.935 C 20.636 52.719,21.275 62.115,25.808 68.111 C 34.645 79.799,52.494 76.715,57.326 62.667 C 61.096 51.702,53.707 39.060,42.667 37.585 C 42.162 37.517,41.789 37.503,41.836 37.553 M72.421 37.827 C 66.253 39.295,62.986 42.946,62.718 48.667 C 62.446 54.484,64.949 56.872,74.167 59.588 C 80.914 61.576,82.338 62.421,82.751 64.682 C 83.666 69.689,74.137 70.256,66.357 65.657 C 65.417 65.101,64.521 64.669,64.365 64.698 C 64.071 64.753,61.349 69.844,61.339 70.360 C 61.319 71.358,65.833 73.540,70.052 74.573 C 82.287 77.567,91.261 72.767,90.598 63.583 C 90.204 58.125,87.109 55.516,78.250 53.176 C 71.769 51.463,70.271 50.474,70.271 47.906 C 70.271 43.177,79.324 42.540,85.165 46.859 C 86.127 47.570,86.373 47.297,88.518 43.147 C 89.314 41.606,89.305 41.577,87.701 40.628 C 83.133 37.926,76.846 36.774,72.421 37.827 M104.337 37.918 C 98.518 39.294,95.249 42.986,94.894 48.583 C 94.530 54.319,97.216 56.889,106.417 59.611 C 113.607 61.737,114.917 62.595,114.917 65.179 C 114.917 70.044,104.820 70.031,97.736 65.157 C 96.552 64.342,96.487 64.396,94.860 67.533 C 93.087 70.950,93.026 70.770,96.583 72.549 C 108.971 78.740,122.359 74.926,122.786 65.083 C 123.055 58.883,120.123 55.850,111.583 53.495 C 103.645 51.307,102.500 50.601,102.500 47.900 C 102.500 43.257,110.580 42.523,116.935 46.588 C 118.442 47.552,118.310 47.644,120.078 44.383 C 121.592 41.590,121.592 41.597,119.947 40.635 C 115.148 37.828,109.140 36.783,104.337 37.918 M79.770 37.921 C 83.241 38.517,88.833 40.927,88.833 41.826 C 88.833 42.245,86.347 46.838,86.061 46.948 C 85.936 46.996,85.476 46.806,85.038 46.525 C 78.536 42.352,70.530 42.915,70.049 47.578 C 69.774 50.236,71.492 51.549,77.333 53.148 C 82.951 54.685,85.080 55.530,87.010 56.987 C 92.226 60.924,91.329 70.115,85.417 73.318 C 79.678 76.426,68.891 75.485,62.530 71.320 C 61.354 70.550,61.347 70.635,62.826 67.681 C 64.391 64.556,64.252 64.642,66.017 65.709 C 72.700 69.751,81.050 70.195,82.685 66.595 C 83.316 65.204,82.953 63.637,81.728 62.468 C 80.578 61.372,79.389 60.898,73.250 59.089 C 66.218 57.016,63.553 54.842,62.974 50.705 C 61.777 42.161,69.635 36.180,79.770 37.921 M111.926 37.913 C 115.457 38.485,121.006 40.914,120.996 41.882 C 120.992 42.329,118.653 46.670,118.295 46.895 C 118.108 47.014,117.762 46.880,116.979 46.385 C 109.730 41.809,100.772 43.451,102.402 49.057 C 102.910 50.806,104.554 51.807,108.750 52.922 C 119.399 55.753,122.151 57.876,122.583 63.594 C 122.965 68.662,120.329 72.608,115.452 74.266 C 109.589 76.260,99.488 74.760,94.514 71.158 C 93.606 70.500,93.623 70.393,95.086 67.506 C 96.536 64.643,96.490 64.679,97.762 65.445 C 105.993 70.403,115.167 70.234,115.167 65.125 C 115.167 62.507,113.610 61.495,106.250 59.328 C 97.984 56.895,95.628 54.958,95.088 50.154 C 94.171 41.999,102.005 36.304,111.926 37.913 M144.678 37.978 C 144.408 38.483,144.430 74.530,144.700 74.800 C 144.982 75.082,151.351 75.082,151.633 74.800 C 151.781 74.652,151.833 73.123,151.833 68.956 C 151.833 65.384,151.897 63.193,152.006 62.989 C 152.169 62.685,152.392 62.667,155.999 62.667 C 163.590 62.667,165.998 61.949,168.893 58.821 C 175.112 52.104,172.261 41.141,163.528 38.191 L 162.250 37.759 153.553 37.702 C 145.000 37.646,144.854 37.651,144.678 37.978 M162.917 38.221 C 172.242 40.851,175.124 52.683,168.060 59.335 C 165.400 61.840,164.119 62.202,157.484 62.322 C 153.374 62.396,152.157 62.467,151.942 62.645 C 151.696 62.850,151.667 63.485,151.667 68.654 C 151.667 72.927,151.615 74.485,151.467 74.633 C 151.083 75.017,145.050 74.905,144.839 74.511 C 144.510 73.896,144.609 38.415,144.941 38.083 C 145.354 37.670,161.397 37.793,162.917 38.221 M30.833 40.083 C 30.329 40.400,29.996 40.661,30.092 40.663 C 30.296 40.667,31.833 39.717,31.833 39.587 C 31.833 39.457,31.821 39.463,30.833 40.083 M27.237 43.042 C 26.187 44.159,25.856 44.648,26.643 43.917 C 27.295 43.311,28.110 42.333,27.963 42.333 C 27.930 42.333,27.603 42.652,27.237 43.042 M38.625 43.972 C 38.464 44.036,39.176 44.094,40.208 44.101 C 52.473 44.188,55.034 64.315,43.280 68.247 C 32.966 71.697,25.160 58.160,31.815 48.361 C 32.187 47.812,32.587 47.325,32.704 47.278 C 32.847 47.221,32.853 47.189,32.721 47.180 C 32.372 47.156,31.322 48.552,30.663 49.917 C 25.723 60.140,33.721 71.785,43.388 68.445 C 54.117 64.737,53.385 46.376,42.417 44.083 C 41.209 43.831,39.136 43.770,38.625 43.972 M151.844 44.313 C 151.494 44.968,151.610 55.730,151.971 56.058 C 152.402 56.447,160.151 56.469,161.445 56.084 C 165.815 54.787,166.291 46.876,162.139 44.576 L 161.250 44.083 156.636 44.032 C 152.172 43.982,152.016 43.992,151.844 44.313 M161.279 44.416 C 165.695 45.727,166.033 53.884,161.750 55.779 C 160.627 56.276,152.666 56.333,152.181 55.848 C 151.785 55.452,151.627 45.196,152.006 44.489 C 152.238 44.055,159.860 43.995,161.279 44.416 M221.907 47.315 C 219.657 47.928,218.233 48.749,216.631 50.356 C 215.437 51.554,215.379 51.520,215.307 49.567 C 215.227 47.426,215.340 47.500,212.158 47.500 C 209.986 47.500,209.478 47.546,209.262 47.762 C 208.941 48.083,208.854 85.249,209.173 85.844 C 209.384 86.239,215.583 86.350,215.967 85.967 C 216.116 85.818,216.167 84.021,216.169 78.925 C 216.172 70.277,216.063 70.707,217.800 72.462 C 220.601 75.293,225.536 76.353,229.250 74.922 C 239.515 70.966,240.572 54.343,230.917 48.712 C 228.258 47.162,224.568 46.589,221.907 47.315 M255.405 47.244 C 253.355 47.718,251.678 48.671,249.891 50.376 C 248.672 51.540,248.626 51.508,248.530 49.419 C 248.492 48.593,248.386 47.823,248.294 47.708 C 248.021 47.370,242.940 47.417,242.595 47.762 C 242.274 48.083,242.187 85.249,242.506 85.844 C 242.717 86.239,248.916 86.350,249.300 85.967 C 249.449 85.817,249.500 83.958,249.500 78.628 C 249.500 70.460,249.464 70.643,250.768 72.134 C 254.019 75.850,260.464 76.626,264.772 73.819 C 272.196 68.982,273.050 56.495,266.379 50.319 C 263.532 47.683,258.996 46.412,255.405 47.244 M226.099 47.324 C 234.149 48.250,239.105 56.726,236.832 65.680 C 234.453 75.048,224.069 78.546,217.775 72.100 C 215.900 70.179,216.000 69.819,216.000 78.499 C 216.000 83.800,215.949 85.651,215.800 85.800 C 215.589 86.011,210.117 86.098,209.597 85.899 C 209.249 85.765,209.187 48.213,209.533 47.867 C 209.787 47.613,214.211 47.590,214.678 47.839 C 214.960 47.990,215.000 48.199,215.000 49.517 C 215.000 52.034,215.179 52.121,216.879 50.438 C 219.465 47.877,222.370 46.896,226.099 47.324 M261.583 47.780 C 269.262 50.167,272.919 59.790,269.297 68.083 C 265.977 75.689,256.808 77.776,251.185 72.206 C 250.416 71.444,249.704 70.849,249.602 70.883 C 249.471 70.926,249.392 73.108,249.333 78.264 C 249.287 82.290,249.189 85.677,249.115 85.792 C 248.859 86.188,242.887 86.079,242.670 85.674 C 242.361 85.095,242.520 48.028,242.833 47.830 C 243.173 47.615,247.607 47.623,248.011 47.839 C 248.295 47.991,248.333 48.200,248.333 49.576 C 248.333 52.134,248.404 52.161,250.288 50.339 C 251.802 48.875,253.640 47.847,255.333 47.516 C 255.838 47.417,256.400 47.303,256.583 47.262 C 257.391 47.080,260.301 47.382,261.583 47.780 M176.533 47.700 C 176.205 48.028,176.253 66.327,176.587 68.083 C 177.608 73.457,180.393 75.660,185.916 75.464 C 189.386 75.340,191.964 74.272,194.461 71.923 C 195.845 70.621,196.167 70.544,196.167 71.512 C 196.167 74.162,198.962 75.802,202.560 75.262 C 203.807 75.075,203.833 75.008,203.835 72.030 L 203.836 69.417 203.043 68.726 L 202.250 68.035 202.167 57.928 C 202.095 49.187,202.050 47.800,201.833 47.663 C 201.442 47.416,195.623 47.456,195.284 47.708 C 195.031 47.898,195.001 48.686,194.961 56.348 L 194.917 64.779 194.287 65.728 C 191.745 69.555,186.570 70.704,184.613 67.876 C 183.581 66.384,183.600 66.577,183.504 56.785 C 183.429 49.063,183.382 47.799,183.167 47.663 C 182.783 47.421,176.779 47.454,176.533 47.700 M272.278 47.611 C 271.946 47.943,271.883 47.769,277.251 61.333 C 283.279 76.567,282.749 74.790,281.939 77.055 C 280.789 80.275,279.824 81.025,277.277 80.686 C 275.250 80.416,275.333 80.296,275.333 83.489 C 275.333 86.936,275.394 86.997,278.840 86.999 C 284.548 87.002,286.742 84.934,289.565 76.887 C 300.705 45.139,299.680 48.150,299.472 47.778 C 299.291 47.454,293.913 47.357,293.334 47.666 C 293.047 47.820,292.372 49.701,291.331 53.250 C 289.900 58.133,286.924 67.466,286.737 67.660 C 286.339 68.072,286.251 67.856,282.780 57.859 C 280.930 52.534,279.286 48.024,279.127 47.838 C 278.834 47.497,272.599 47.290,272.278 47.611 M183.000 47.830 C 183.215 47.966,183.262 49.231,183.339 56.952 C 183.440 67.246,183.395 66.917,184.917 68.438 C 187.371 70.892,192.621 69.313,194.647 65.512 L 195.167 64.537 195.167 56.364 C 195.167 49.156,195.198 48.160,195.429 47.929 C 195.829 47.529,201.354 47.541,201.688 47.942 C 201.874 48.166,201.932 50.078,202.000 58.207 L 202.083 68.196 202.519 68.556 C 202.759 68.754,203.115 69.047,203.311 69.207 C 203.645 69.479,203.667 69.646,203.667 71.986 C 203.667 74.878,203.649 74.916,202.230 75.093 C 198.773 75.525,196.333 73.898,196.333 71.161 C 196.333 70.096,195.927 70.207,194.358 71.699 C 191.690 74.238,189.139 75.241,185.333 75.247 C 180.042 75.254,177.378 72.761,176.673 67.142 C 176.345 64.519,176.445 48.048,176.792 47.847 C 177.162 47.631,182.661 47.616,183.000 47.830 M278.883 47.875 C 279.047 47.997,280.517 51.988,282.427 57.500 C 286.485 69.205,286.330 68.844,286.900 67.958 C 287.085 67.672,290.617 56.462,292.939 48.795 C 293.263 47.726,293.440 47.667,296.309 47.667 C 298.969 47.667,299.333 47.722,299.333 48.125 C 299.333 48.337,296.831 55.552,291.052 72.000 C 290.552 73.421,289.670 75.941,289.091 77.600 C 287.497 82.166,286.797 83.397,284.978 84.835 C 282.819 86.542,279.521 87.263,276.673 86.652 C 275.550 86.412,275.500 86.274,275.500 83.436 C 275.500 80.691,275.533 80.621,276.725 80.852 C 279.820 81.451,281.117 80.427,282.394 76.377 L 282.827 75.004 282.347 73.710 C 282.084 72.999,281.155 70.617,280.284 68.417 C 271.691 46.712,272.188 48.028,272.505 47.827 C 272.892 47.582,278.546 47.624,278.883 47.875 M373.164 48.645 C 372.047 49.244,371.902 49.813,371.435 55.417 C 370.850 62.448,371.047 62.782,374.574 60.745 C 376.348 59.720,377.388 60.133,379.016 62.511 C 380.803 65.119,382.092 65.702,383.790 64.668 C 384.785 64.064,384.919 63.568,384.897 60.583 C 384.847 53.737,382.659 50.570,376.840 48.922 C 374.465 48.249,373.972 48.212,373.164 48.645 M221.153 53.131 C 217.311 54.161,216.009 56.092,216.004 60.767 C 216.000 64.288,216.059 64.596,217.016 66.016 C 221.507 72.682,230.481 69.470,230.498 61.191 C 230.508 55.859,225.878 51.865,221.153 53.131 M254.851 53.014 C 252.905 53.396,250.536 55.130,249.687 56.793 C 249.082 57.980,249.153 63.881,249.789 65.164 C 253.056 71.761,261.665 70.760,263.504 63.569 C 265.034 57.587,260.393 51.925,254.851 53.014 M225.050 53.502 C 229.586 54.903,231.650 60.559,229.341 65.260 C 227.020 69.987,221.912 70.845,218.266 67.120 C 216.327 65.140,216.250 64.899,216.250 60.833 L 216.250 57.417 216.704 56.644 C 218.343 53.856,221.883 52.524,225.050 53.502 M258.178 53.433 C 265.756 55.658,265.156 68.153,257.412 69.358 C 254.631 69.791,251.392 67.898,249.945 64.994 C 249.346 63.792,249.265 58.284,249.827 57.045 C 251.129 54.178,255.006 52.501,258.178 53.433 M326.361 73.601 C 325.350 74.104,325.000 74.654,325.000 75.737 C 325.000 76.686,325.289 77.035,331.512 83.608 C 334.885 87.171,337.891 84.000,336.275 78.583 C 335.625 76.405,333.549 73.714,332.239 73.350 C 330.854 72.966,327.334 73.116,326.361 73.601 " stroke="none" fill="#1fa2e1" fill-rule="evenodd"></path><path id="path2" d="M0.000 47.250 L 0.000 94.500 200.000 94.500 L 400.000 94.500 400.000 47.250 L 400.000 0.000 200.000 0.000 L 0.000 0.000 0.000 47.250 M369.523 10.157 C 376.356 11.577,379.229 13.773,380.328 18.417 C 380.812 20.464,381.446 20.833,384.738 20.986 C 388.412 21.157,388.601 21.406,388.453 25.873 C 388.347 29.076,387.998 30.556,386.674 33.421 C 385.239 36.528,384.560 36.834,378.750 37.004 C 376.273 37.077,374.313 37.210,373.917 37.332 C 371.498 38.078,369.737 39.748,368.818 42.167 C 368.492 43.024,368.452 43.442,366.663 64.583 C 364.977 84.509,365.021 84.055,364.694 84.496 C 364.135 85.247,362.760 85.213,361.395 84.413 C 360.367 83.810,360.146 83.457,357.367 77.957 C 354.671 72.623,354.259 71.955,353.048 70.954 C 350.853 69.140,351.084 69.167,337.711 69.167 C 323.701 69.167,324.571 68.995,322.181 72.231 C 320.542 74.450,320.229 74.672,316.531 76.246 C 313.703 77.449,311.488 79.540,310.081 82.333 C 309.287 83.912,307.740 85.013,305.975 85.258 C 304.548 85.457,304.500 85.319,304.500 81.042 C 304.501 75.270,304.776 73.890,306.853 69.212 C 308.589 65.303,308.518 65.903,308.464 55.558 L 308.417 46.583 307.966 45.729 C 307.393 44.643,306.377 43.751,304.547 42.728 C 294.782 37.266,293.749 23.364,302.587 16.341 C 310.420 10.117,322.169 12.822,325.768 21.678 C 327.880 26.876,321.033 29.689,318.317 24.739 C 315.845 20.235,310.731 19.695,306.943 23.538 C 302.541 28.006,304.383 34.324,310.750 36.595 C 313.010 37.401,327.164 37.067,333.000 36.069 C 338.990 35.046,342.781 35.786,346.767 38.758 C 352.483 43.019,359.683 40.899,360.661 34.667 C 361.216 31.130,360.530 28.999,358.838 29.001 C 357.381 29.002,356.921 29.752,356.770 32.375 C 356.421 38.405,349.352 38.642,348.738 32.644 C 348.221 27.604,349.879 22.586,353.904 17.000 C 358.146 11.114,363.287 8.862,369.523 10.157 M21.917 13.401 C 26.069 14.719,29.287 18.569,29.826 22.863 C 30.008 24.314,29.991 24.297,31.508 24.495 C 37.309 25.251,41.626 30.331,41.661 36.439 L 41.667 37.462 42.611 37.580 C 53.636 38.957,61.102 51.686,57.326 62.667 C 52.970 75.334,37.629 79.464,28.012 70.560 C 21.630 64.652,20.021 54.264,24.350 46.926 L 24.682 46.363 23.431 45.422 C 20.569 43.268,18.934 40.552,18.572 37.351 C 18.430 36.094,18.424 36.089,16.513 35.760 C 8.649 34.407,4.549 26.174,8.166 19.000 C 10.632 14.109,16.553 11.698,21.917 13.401 M16.000 15.096 C 5.989 17.725,6.717 32.204,16.942 33.837 C 18.369 34.065,18.514 33.960,19.064 32.303 C 19.353 31.430,19.865 30.412,20.445 29.554 C 21.469 28.041,21.469 27.833,20.440 27.833 C 19.496 27.833,19.333 28.043,19.333 29.258 C 19.333 30.354,19.048 30.836,18.404 30.831 C 17.702 30.825,17.333 30.206,17.333 29.031 C 17.333 27.984,17.194 27.883,15.640 27.807 C 12.845 27.671,12.830 26.010,15.621 25.823 C 17.916 25.669,17.909 25.130,15.570 21.974 C 13.625 19.349,13.416 18.969,13.661 18.510 C 14.264 17.384,14.973 17.752,16.724 20.096 C 18.465 22.428,18.344 22.429,20.076 20.088 C 21.544 18.104,22.072 17.682,22.676 18.005 C 23.533 18.464,23.351 18.974,21.370 21.651 C 18.714 25.240,18.678 25.833,21.115 25.833 C 21.745 25.833,22.387 25.944,22.742 26.113 L 23.329 26.393 24.956 25.626 C 25.851 25.204,26.771 24.806,27.000 24.742 C 27.917 24.486,28.076 23.711,27.565 21.989 C 26.031 16.826,20.948 13.797,16.000 15.096 M28.731 26.496 C 19.858 27.841,17.365 40.081,25.123 44.205 L 25.829 44.581 26.823 43.499 C 27.949 42.274,28.011 42.055,27.394 41.487 C 26.515 40.679,26.008 38.842,26.501 38.249 C 26.967 37.687,27.708 37.997,28.167 38.945 C 29.029 40.731,29.466 40.914,30.853 40.071 L 31.871 39.453 31.779 38.768 C 31.647 37.784,30.868 37.116,29.552 36.857 C 25.705 36.100,25.125 31.920,28.548 29.623 C 28.818 29.441,29.027 29.110,29.093 28.758 C 29.388 27.185,30.717 27.357,31.068 29.014 C 31.129 29.300,31.436 29.617,31.979 29.955 C 33.812 31.095,34.500 34.009,32.933 33.997 C 32.383 33.993,32.175 33.782,31.861 32.905 C 31.179 30.998,29.092 30.791,28.416 32.562 C 27.960 33.755,28.773 34.983,30.033 35.007 C 31.388 35.033,32.854 36.063,33.518 37.454 C 33.918 38.292,34.089 38.501,34.306 38.415 C 35.041 38.123,37.190 37.651,38.215 37.556 C 39.624 37.425,39.750 37.217,39.595 35.288 C 39.155 29.802,34.070 25.686,28.731 26.496 M81.507 38.044 C 84.232 38.763,88.811 40.933,89.079 41.633 C 89.172 41.874,88.580 43.121,87.123 45.750 C 86.301 47.234,85.945 47.435,85.165 46.859 C 79.324 42.540,70.271 43.177,70.271 47.906 C 70.271 50.474,71.769 51.463,78.250 53.176 C 87.109 55.516,90.204 58.125,90.598 63.583 C 91.261 72.767,82.287 77.567,70.052 74.573 C 65.833 73.540,61.319 71.358,61.339 70.360 C 61.349 69.844,64.071 64.753,64.365 64.698 C 64.521 64.669,65.417 65.101,66.357 65.657 C 74.137 70.256,83.666 69.689,82.751 64.682 C 82.338 62.421,80.914 61.576,74.167 59.588 C 64.949 56.872,62.446 54.484,62.718 48.667 C 62.986 42.946,66.253 39.295,72.421 37.827 C 74.453 37.343,79.288 37.459,81.507 38.044 M113.671 38.040 C 116.630 38.826,121.016 40.929,121.253 41.675 C 121.347 41.974,119.261 46.172,118.627 46.958 C 118.352 47.300,117.891 47.200,116.935 46.588 C 110.580 42.523,102.500 43.257,102.500 47.900 C 102.500 50.601,103.645 51.307,111.583 53.495 C 120.123 55.850,123.055 58.883,122.786 65.083 C 122.359 74.926,108.971 78.740,96.583 72.549 C 93.026 70.770,93.087 70.950,94.860 67.533 C 96.487 64.396,96.552 64.342,97.736 65.157 C 104.820 70.031,114.917 70.044,114.917 65.179 C 114.917 62.595,113.607 61.737,106.417 59.611 C 99.921 57.689,97.729 56.475,96.049 53.867 C 93.647 50.139,94.939 43.648,98.701 40.553 C 102.060 37.789,108.593 36.692,113.671 38.040 M163.528 38.191 C 172.261 41.141,175.112 52.104,168.893 58.821 C 165.998 61.949,163.590 62.667,155.999 62.667 C 152.392 62.667,152.169 62.685,152.006 62.989 C 151.897 63.193,151.833 65.384,151.833 68.956 C 151.833 73.123,151.781 74.652,151.633 74.800 C 151.351 75.082,144.982 75.082,144.700 74.800 C 144.430 74.530,144.408 38.483,144.678 37.978 C 144.854 37.651,145.000 37.646,153.553 37.702 L 162.250 37.759 163.528 38.191 M38.730 44.144 C 38.272 44.226,37.777 44.501,37.245 44.970 C 36.460 45.660,34.026 47.000,33.556 47.000 C 31.058 47.000,28.619 54.750,29.648 59.417 C 32.386 71.839,48.010 71.848,50.575 59.429 C 52.349 50.843,46.136 42.826,38.730 44.144 M152.006 44.489 C 151.627 45.196,151.785 55.452,152.181 55.848 C 152.666 56.333,160.627 56.276,161.750 55.779 C 166.033 53.884,165.695 45.727,161.279 44.416 C 159.860 43.995,152.238 44.055,152.006 44.489 M228.463 47.596 C 241.929 52.156,239.918 74.910,226.000 75.453 C 222.485 75.590,219.997 74.682,217.800 72.462 C 216.063 70.707,216.172 70.277,216.169 78.925 C 216.167 84.021,216.116 85.818,215.967 85.967 C 215.583 86.350,209.384 86.239,209.173 85.844 C 208.854 85.249,208.941 48.083,209.262 47.762 C 209.478 47.546,209.986 47.500,212.158 47.500 C 215.340 47.500,215.227 47.426,215.307 49.567 C 215.379 51.520,215.437 51.554,216.631 50.356 C 219.722 47.255,224.301 46.187,228.463 47.596 M261.833 47.641 C 269.875 50.383,273.327 60.363,269.155 68.810 C 265.542 76.125,255.800 77.886,250.768 72.134 C 249.464 70.643,249.500 70.460,249.500 78.628 C 249.500 83.958,249.449 85.817,249.300 85.967 C 248.916 86.350,242.717 86.239,242.506 85.844 C 242.187 85.249,242.274 48.083,242.595 47.762 C 242.940 47.417,248.021 47.370,248.294 47.708 C 248.386 47.823,248.492 48.593,248.530 49.419 C 248.626 51.508,248.672 51.540,249.891 50.376 C 253.255 47.166,257.554 46.181,261.833 47.641 M183.167 47.663 C 183.382 47.799,183.429 49.063,183.504 56.785 C 183.600 66.577,183.581 66.384,184.613 67.876 C 186.570 70.704,191.745 69.555,194.287 65.728 L 194.917 64.779 194.961 56.348 C 195.001 48.686,195.031 47.898,195.284 47.708 C 195.623 47.456,201.442 47.416,201.833 47.663 C 202.050 47.800,202.095 49.187,202.167 57.928 L 202.250 68.035 203.043 68.726 L 203.836 69.417 203.835 72.030 C 203.833 75.008,203.807 75.075,202.560 75.262 C 198.962 75.802,196.167 74.162,196.167 71.512 C 196.167 70.544,195.845 70.621,194.461 71.923 C 191.964 74.272,189.386 75.340,185.916 75.464 C 180.393 75.660,177.608 73.457,176.587 68.083 C 176.253 66.327,176.205 48.028,176.533 47.700 C 176.779 47.454,182.783 47.421,183.167 47.663 M279.127 47.838 C 279.286 48.024,280.930 52.534,282.780 57.859 C 286.251 67.856,286.339 68.072,286.737 67.660 C 286.924 67.466,289.900 58.133,291.331 53.250 C 292.372 49.701,293.047 47.820,293.334 47.666 C 293.913 47.357,299.291 47.454,299.472 47.778 C 299.680 48.150,300.705 45.139,289.565 76.887 C 286.742 84.934,284.548 87.002,278.840 86.999 C 275.394 86.997,275.333 86.936,275.333 83.489 C 275.333 80.296,275.250 80.416,277.277 80.686 C 279.824 81.025,280.789 80.275,281.939 77.055 C 282.749 74.790,283.279 76.567,277.251 61.333 C 271.883 47.769,271.946 47.943,272.278 47.611 C 272.599 47.290,278.834 47.497,279.127 47.838 M376.840 48.922 C 382.659 50.570,384.847 53.737,384.897 60.583 C 384.919 63.568,384.785 64.064,383.790 64.668 C 382.092 65.702,380.803 65.119,379.016 62.511 C 377.388 60.133,376.348 59.720,374.574 60.745 C 372.320 62.047,371.838 62.083,371.301 60.991 C 370.887 60.147,371.641 50.836,372.217 49.686 C 372.959 48.207,373.817 48.065,376.840 48.922 M220.917 53.400 C 219.243 53.931,217.518 55.259,216.704 56.644 L 216.250 57.417 216.250 60.833 C 216.250 64.899,216.327 65.140,218.266 67.120 C 222.653 71.603,229.211 69.125,230.199 62.612 C 231.084 56.780,226.041 51.776,220.917 53.400 M254.081 53.466 C 250.538 54.692,249.509 56.369,249.504 60.926 C 249.499 64.678,249.627 65.078,251.442 67.002 C 256.237 72.085,263.526 68.626,263.561 61.250 C 263.586 55.794,258.775 51.843,254.081 53.466 M332.239 73.350 C 335.724 74.318,338.168 82.752,335.538 84.735 C 334.394 85.598,333.036 85.218,331.512 83.608 C 324.524 76.227,324.429 76.088,325.245 74.509 C 325.855 73.330,329.808 72.676,332.239 73.350 " stroke="none" fill="#ffffff" fill-rule="evenodd"></path><path id="path3" d="M16.583 12.942 C 3.745 14.996,3.688 33.553,16.513 35.760 C 18.424 36.089,18.430 36.094,18.572 37.351 C 18.934 40.554,20.569 43.268,23.434 45.424 C 24.623 46.319,24.700 46.352,24.927 46.059 C 25.348 45.516,25.873 44.651,25.811 44.604 C 25.777 44.580,25.412 44.365,25.000 44.127 C 19.813 41.138,18.927 33.681,23.235 29.270 C 27.562 24.840,35.147 25.746,38.249 31.063 C 39.323 32.904,39.947 35.789,39.530 36.985 L 39.351 37.500 40.509 37.500 L 41.667 37.500 41.661 36.458 C 41.627 30.331,37.317 25.252,31.508 24.495 C 29.991 24.297,30.008 24.314,29.826 22.863 C 29.041 16.614,22.810 11.945,16.583 12.942 M20.743 15.089 C 23.875 15.904,26.566 18.626,27.565 21.989 C 28.076 23.711,27.917 24.486,27.000 24.742 C 26.771 24.806,25.851 25.204,24.956 25.626 L 23.329 26.393 22.742 26.113 C 22.387 25.944,21.745 25.833,21.115 25.833 C 18.678 25.833,18.714 25.240,21.370 21.651 C 23.351 18.974,23.533 18.464,22.676 18.005 C 22.072 17.682,21.544 18.104,20.076 20.088 C 18.344 22.429,18.465 22.428,16.724 20.096 C 14.973 17.752,14.264 17.384,13.661 18.510 C 13.416 18.969,13.625 19.349,15.570 21.974 C 17.909 25.130,17.916 25.669,15.621 25.823 C 12.830 26.010,12.845 27.671,15.640 27.807 C 17.194 27.883,17.333 27.984,17.333 29.031 C 17.333 30.206,17.702 30.825,18.404 30.831 C 19.048 30.836,19.333 30.354,19.333 29.258 C 19.333 28.043,19.496 27.833,20.440 27.833 C 21.469 27.833,21.469 28.041,20.445 29.554 C 19.865 30.412,19.353 31.430,19.064 32.303 C 18.514 33.960,18.369 34.065,16.942 33.837 C 9.206 32.602,6.091 23.187,11.578 17.630 C 13.886 15.292,17.586 14.266,20.743 15.089 M29.461 27.958 C 29.320 28.119,29.152 28.495,29.088 28.794 C 29.022 29.106,28.788 29.462,28.541 29.628 C 25.125 31.916,25.710 36.101,29.552 36.857 C 30.881 37.118,31.647 37.783,31.782 38.792 C 31.834 39.181,31.896 39.500,31.918 39.500 C 31.974 39.500,33.902 38.629,33.973 38.572 C 34.004 38.547,33.799 38.044,33.518 37.455 C 32.854 36.062,31.388 35.033,30.033 35.007 C 28.773 34.983,27.960 33.755,28.416 32.562 C 29.092 30.791,31.179 30.998,31.861 32.905 C 32.175 33.782,32.383 33.993,32.933 33.997 C 34.357 34.008,33.885 31.278,32.269 30.163 C 31.206 29.429,31.000 29.199,31.000 28.750 C 31.000 27.890,29.983 27.367,29.461 27.958 M26.501 38.249 C 26.018 38.831,26.447 40.488,27.321 41.417 C 27.580 41.692,27.820 42.010,27.855 42.125 C 27.893 42.255,28.278 42.049,28.885 41.573 L 29.853 40.813 29.301 40.447 C 28.969 40.226,28.551 39.683,28.250 39.082 C 27.706 37.995,26.993 37.656,26.501 38.249 M36.137 44.740 C 35.032 45.200,33.954 45.918,33.250 46.663 L 32.750 47.192 33.250 47.084 C 34.854 46.736,38.565 44.347,37.500 44.347 C 37.271 44.347,36.658 44.524,36.137 44.740 " stroke="none" fill="#fbb60d" fill-rule="evenodd"></path></g></svg>