<svg id="svg" version="1.1" xmlns="http://www.w3.org/2000/svg" xmlns:xlink="http://www.w3.org/1999/xlink" width="400" height="344.05594405594405" viewBox="0, 0, 400,344.05594405594405"><g id="svgg"><path id="path0" d="M282.788 31.360 C 282.220 31.535,280.594 31.837,279.174 32.030 C 276.600 32.381,272.701 33.401,270.740 34.236 C 270.172 34.478,268.623 35.096,267.298 35.610 C 265.972 36.123,264.656 36.681,264.372 36.849 C 264.088 37.017,263.018 37.650,261.994 38.255 C 258.020 40.604,254.754 43.098,251.612 46.184 C 248.624 49.118,247.042 51.030,243.542 55.938 C 242.867 56.885,241.344 58.976,240.157 60.585 C 237.871 63.686,235.112 67.754,235.112 68.025 C 235.112 68.113,234.823 68.606,234.469 69.119 C 230.544 74.815,226.078 85.389,225.278 90.878 C 225.154 91.730,224.760 93.579,224.402 94.987 C 224.045 96.396,223.749 98.332,223.745 99.290 C 223.742 100.249,223.514 102.582,223.240 104.475 C 221.663 115.363,223.436 124.211,228.005 128.256 C 234.480 133.988,242.923 133.814,248.563 127.832 C 251.990 124.197,252.643 122.113,252.968 113.769 C 253.269 106.072,253.700 105.042,257.472 103.006 C 261.144 101.023,266.307 103.698,267.413 108.156 C 268.256 111.550,267.715 124.553,266.614 127.367 C 266.355 128.029,266.044 129.036,265.923 129.604 C 265.802 130.172,265.094 131.614,264.349 132.808 C 263.604 134.002,262.995 135.070,262.995 135.179 C 262.995 135.503,259.154 140.103,258.883 140.103 C 258.748 140.103,257.967 140.703,257.149 141.436 C 255.628 142.800,250.680 145.611,249.802 145.611 C 249.534 145.611,248.327 145.938,247.119 146.338 C 240.586 148.501,228.165 147.112,222.031 143.532 C 219.505 142.058,218.061 141.046,215.440 138.912 C 213.766 137.550,211.970 136.215,211.448 135.946 C 210.926 135.676,209.876 135.043,209.114 134.538 C 208.352 134.033,206.881 133.283,205.844 132.872 C 204.807 132.461,203.184 131.816,202.238 131.438 C 201.291 131.060,199.669 130.517,198.633 130.233 C 197.597 129.948,196.326 129.496,195.810 129.229 C 195.293 128.962,194.472 128.744,193.984 128.744 C 193.496 128.744,191.823 128.409,190.266 128.000 C 186.025 126.887,174.028 126.878,169.594 127.985 C 167.923 128.402,166.141 128.745,165.635 128.748 C 165.130 128.750,163.864 128.982,162.823 129.263 C 161.781 129.544,159.535 129.932,157.831 130.124 C 156.127 130.316,153.649 130.700,152.324 130.976 C 144.210 132.668,84.005 132.663,80.904 130.970 C 79.815 130.376,75.178 128.399,74.873 128.399 C 74.749 128.399,73.548 127.664,72.205 126.764 C 70.862 125.865,69.385 124.919,68.924 124.662 C 68.462 124.406,67.830 123.748,67.519 123.201 C 67.208 122.655,66.859 122.206,66.743 122.205 C 66.417 122.202,62.848 117.425,61.669 115.415 C 57.468 108.251,57.023 98.257,60.588 91.134 C 64.437 83.444,75.039 74.010,79.831 74.010 C 80.051 74.010,80.635 73.746,81.129 73.422 C 82.823 72.312,92.479 72.559,95.525 73.791 C 101.411 76.170,106.426 80.474,108.614 85.026 C 112.082 92.237,114.468 94.426,120.433 95.866 C 125.902 97.187,131.695 95.559,135.315 91.684 C 140.727 85.892,139.945 77.428,133.071 67.388 C 132.205 66.125,131.497 64.979,131.497 64.843 C 131.497 64.707,130.452 63.488,129.174 62.134 C 127.896 60.780,126.073 58.832,125.122 57.805 C 122.328 54.785,119.270 52.309,116.035 50.447 C 114.370 49.488,112.792 48.537,112.528 48.334 C 111.985 47.917,104.675 45.259,103.098 44.906 C 102.530 44.779,101.059 44.388,99.828 44.038 C 94.133 42.416,85.008 41.917,80.551 42.984 C 79.699 43.188,77.995 43.510,76.764 43.701 C 67.976 45.061,57.678 49.560,52.105 54.475 C 51.085 55.374,50.112 56.110,49.943 56.110 C 48.398 56.110,39.721 66.306,36.525 71.876 C 32.837 78.304,30.173 85.309,29.271 90.948 C 29.098 92.028,28.793 93.218,28.592 93.593 C 28.369 94.010,28.225 97.060,28.223 101.440 C 28.218 108.612,28.333 109.648,29.810 115.835 C 30.081 116.971,30.522 118.853,30.789 120.018 C 33.420 131.479,46.312 147.650,57.487 153.506 C 58.718 154.151,60.034 154.842,60.413 155.042 C 62.684 156.242,66.166 158.782,67.806 160.436 C 69.648 162.292,70.285 163.331,71.995 167.270 L 72.806 169.136 72.806 203.243 L 72.806 237.349 72.056 239.243 C 71.643 240.284,70.902 242.424,70.409 243.999 C 69.915 245.574,69.372 247.123,69.201 247.442 C 69.029 247.760,68.394 249.105,67.788 250.430 C 64.719 257.140,63.377 260.331,62.503 262.995 C 61.975 264.604,61.262 266.618,60.918 267.470 C 58.761 272.825,58.485 275.653,58.283 294.492 C 58.073 314.099,57.796 313.238,64.058 312.401 C 71.011 311.471,75.664 307.989,79.340 300.964 C 80.913 297.958,83.672 293.749,85.370 291.766 C 90.903 285.303,94.719 282.382,101.549 279.379 C 103.158 278.672,104.785 277.952,105.164 277.779 C 105.542 277.607,107.091 277.016,108.606 276.467 C 110.121 275.917,112.135 274.992,113.081 274.411 C 114.028 273.830,115.305 273.098,115.919 272.784 C 117.408 272.022,120.390 268.761,123.453 264.544 C 127.822 258.528,128.139 258.152,130.097 256.645 C 132.330 254.926,135.363 253.641,139.243 252.770 C 143.530 251.807,220.146 251.820,225.129 252.784 C 229.847 253.697,234.661 255.513,236.559 257.096 C 244.158 263.430,243.848 262.955,255.267 285.800 C 266.238 307.750,267.198 309.060,273.864 311.157 C 281.407 313.531,283.496 311.811,284.030 302.788 C 284.210 299.740,284.503 296.317,284.681 295.181 C 284.860 294.045,285.169 290.327,285.370 286.919 C 285.571 283.511,285.880 279.793,286.059 278.657 C 286.237 277.522,286.546 273.804,286.747 270.396 C 286.948 266.988,287.258 263.270,287.436 262.134 C 287.614 260.998,287.928 257.203,288.134 253.701 C 288.340 250.198,288.653 246.680,288.830 245.883 C 289.008 245.087,289.312 241.756,289.507 238.482 C 289.701 235.209,290.078 230.671,290.345 228.399 C 290.612 226.127,290.933 222.258,291.057 219.801 C 291.182 217.343,291.422 214.482,291.591 213.442 C 291.761 212.403,292.059 208.837,292.255 205.518 C 292.451 202.199,292.762 198.457,292.946 197.203 C 293.130 195.948,293.441 192.230,293.637 188.941 C 293.834 185.652,294.216 181.411,294.486 179.518 C 294.756 177.625,295.071 174.062,295.185 171.601 C 295.299 169.139,295.607 165.422,295.868 163.339 C 296.130 161.256,296.440 158.313,296.558 156.799 C 297.206 148.477,303.615 139.695,311.988 135.655 C 317.960 132.774,322.145 132.186,336.833 132.164 C 350.561 132.143,354.200 131.520,358.009 128.536 C 359.682 127.226,363.170 122.504,363.678 120.864 C 363.818 120.411,364.704 118.320,365.647 116.217 C 367.725 111.582,370.015 104.035,370.410 100.516 C 373.195 75.742,371.915 73.052,357.143 72.623 C 343.927 72.238,341.608 70.600,339.910 60.448 C 339.781 59.672,339.402 58.494,339.070 57.831 C 338.737 57.169,338.229 56.084,337.940 55.422 C 336.579 52.296,335.849 50.863,335.260 50.161 C 333.511 48.075,332.874 47.203,332.874 46.892 C 332.874 46.705,332.100 45.875,331.154 45.049 C 330.208 44.222,328.800 42.982,328.026 42.293 C 326.590 41.016,318.906 37.028,317.149 36.648 C 316.211 36.446,313.590 35.703,309.294 34.422 C 308.158 34.083,305.370 33.398,303.098 32.900 C 300.826 32.401,298.012 31.765,296.845 31.487 C 294.443 30.914,284.520 30.824,282.788 31.360 M314.114 175.697 C 310.712 177.316,309.495 179.744,308.917 186.059 C 308.065 195.381,307.759 198.836,307.407 203.098 C 307.211 205.465,306.901 208.718,306.716 210.327 C 306.532 211.936,306.358 215.237,306.329 217.661 L 306.277 222.070 307.269 223.114 C 310.143 226.137,312.165 225.792,318.782 221.153 C 325.607 216.367,331.401 219.379,338.210 231.252 C 343.121 239.817,354.637 239.364,357.334 230.500 C 358.729 225.916,357.825 208.846,355.835 202.205 C 354.293 197.061,349.320 188.998,345.611 185.632 C 342.609 182.907,341.733 182.264,339.403 181.078 C 336.725 179.714,334.042 178.757,328.399 177.151 C 326.601 176.639,324.122 175.914,322.892 175.540 C 319.731 174.581,316.331 174.641,314.114 175.697 M141.308 267.849 C 137.194 269.111,134.460 272.445,134.305 276.389 L 134.187 279.393 135.914 281.545 C 138.017 284.164,143.569 290.273,151.443 298.631 C 152.874 300.150,155.207 302.690,156.627 304.276 C 160.857 309.000,161.187 309.317,163.332 310.711 C 168.135 313.833,174.304 312.185,176.971 307.067 C 178.293 304.532,178.195 292.832,176.820 288.985 C 176.549 288.227,175.998 286.523,175.596 285.198 C 173.568 278.515,166.174 269.569,161.446 268.077 C 159.324 267.408,143.336 267.227,141.308 267.849 " stroke="none" fill="#1ca4e4" fill-rule="evenodd"></path><path id="path1" d="M0.000 172.117 L 0.000 344.234 200.000 344.234 L 400.000 344.234 400.000 172.117 L 400.000 0.000 200.000 0.000 L 0.000 0.000 0.000 172.117 M296.845 31.487 C 298.012 31.765,300.826 32.401,303.098 32.900 C 305.370 33.398,308.158 34.083,309.294 34.422 C 313.590 35.703,316.211 36.446,317.149 36.648 C 318.906 37.028,326.590 41.016,328.026 42.293 C 328.800 42.982,330.208 44.222,331.154 45.049 C 332.100 45.875,332.874 46.705,332.874 46.892 C 332.874 47.203,333.511 48.075,335.260 50.161 C 335.849 50.863,336.579 52.296,337.940 55.422 C 338.229 56.084,338.737 57.169,339.070 57.831 C 339.402 58.494,339.781 59.672,339.910 60.448 C 341.608 70.600,343.927 72.238,357.143 72.623 C 371.915 73.052,373.195 75.742,370.410 100.516 C 370.015 104.035,367.725 111.582,365.647 116.217 C 364.704 118.320,363.818 120.411,363.678 120.864 C 363.170 122.504,359.682 127.226,358.009 128.536 C 354.200 131.520,350.561 132.143,336.833 132.164 C 322.145 132.186,317.960 132.774,311.988 135.655 C 303.615 139.695,297.206 148.477,296.558 156.799 C 296.440 158.313,296.130 161.256,295.868 163.339 C 295.607 165.422,295.299 169.139,295.185 171.601 C 295.071 174.062,294.756 177.625,294.486 179.518 C 294.216 181.411,293.834 185.652,293.637 188.941 C 293.441 192.230,293.130 195.948,292.946 197.203 C 292.762 198.457,292.451 202.199,292.255 205.518 C 292.059 208.837,291.761 212.403,291.591 213.442 C 291.422 214.482,291.182 217.343,291.057 219.801 C 290.933 222.258,290.612 226.127,290.345 228.399 C 290.078 230.671,289.701 235.209,289.507 238.482 C 289.312 241.756,289.008 245.087,288.830 245.883 C 288.653 246.680,288.340 250.198,288.134 253.701 C 287.928 257.203,287.614 260.998,287.436 262.134 C 287.258 263.270,286.948 266.988,286.747 270.396 C 286.546 273.804,286.237 277.522,286.059 278.657 C 285.880 279.793,285.571 283.511,285.370 286.919 C 285.169 290.327,284.860 294.045,284.681 295.181 C 284.503 296.317,284.210 299.740,284.030 302.788 C 283.496 311.811,281.407 313.531,273.864 311.157 C 267.198 309.060,266.238 307.750,255.267 285.800 C 243.848 262.955,244.158 263.430,236.559 257.096 C 234.661 255.513,229.847 253.697,225.129 252.784 C 220.146 251.820,143.530 251.807,139.243 252.770 C 135.363 253.641,132.330 254.926,130.097 256.645 C 128.139 258.152,127.822 258.528,123.453 264.544 C 120.390 268.761,117.408 272.022,115.919 272.784 C 115.305 273.098,114.028 273.830,113.081 274.411 C 112.135 274.992,110.121 275.917,108.606 276.467 C 107.091 277.016,105.542 277.607,105.164 277.779 C 104.785 277.952,103.158 278.672,101.549 279.379 C 94.719 282.382,90.903 285.303,85.370 291.766 C 83.672 293.749,80.913 297.958,79.340 300.964 C 75.664 307.989,71.011 311.471,64.058 312.401 C 57.796 313.238,58.073 314.099,58.283 294.492 C 58.485 275.653,58.761 272.825,60.918 267.470 C 61.262 266.618,61.975 264.604,62.503 262.995 C 63.377 260.331,64.719 257.140,67.788 250.430 C 68.394 249.105,69.029 247.760,69.201 247.442 C 69.372 247.123,69.915 245.574,70.409 243.999 C 70.902 242.424,71.643 240.284,72.056 239.243 L 72.806 237.349 72.806 203.243 L 72.806 169.136 71.995 167.270 C 70.285 163.331,69.648 162.292,67.806 160.436 C 66.166 158.782,62.684 156.242,60.413 155.042 C 60.034 154.842,58.718 154.151,57.487 153.506 C 46.312 147.650,33.420 131.479,30.789 120.018 C 30.522 118.853,30.081 116.971,29.810 115.835 C 28.333 109.648,28.218 108.612,28.223 101.440 C 28.225 97.060,28.369 94.010,28.592 93.593 C 28.793 93.218,29.098 92.028,29.271 90.948 C 30.992 80.186,37.100 68.692,45.666 60.094 C 47.849 57.903,49.774 56.110,49.943 56.110 C 50.112 56.110,51.085 55.374,52.105 54.475 C 57.678 49.560,67.976 45.061,76.764 43.701 C 77.995 43.510,79.699 43.188,80.551 42.984 C 85.008 41.917,94.133 42.416,99.828 44.038 C 101.059 44.388,102.530 44.779,103.098 44.906 C 104.675 45.259,111.985 47.917,112.528 48.334 C 112.792 48.537,114.370 49.488,116.035 50.447 C 119.270 52.309,122.328 54.785,125.122 57.805 C 126.073 58.832,127.896 60.780,129.174 62.134 C 130.452 63.488,131.497 64.707,131.497 64.843 C 131.497 64.979,132.205 66.125,133.071 67.388 C 139.945 77.428,140.727 85.892,135.315 91.684 C 131.695 95.559,125.902 97.187,120.433 95.866 C 114.468 94.426,112.082 92.237,108.614 85.026 C 106.426 80.474,101.411 76.170,95.525 73.791 C 92.479 72.559,82.823 72.312,81.129 73.422 C 80.635 73.746,80.051 74.010,79.831 74.010 C 75.039 74.010,64.437 83.444,60.588 91.134 C 57.023 98.257,57.468 108.251,61.669 115.415 C 62.848 117.425,66.417 122.202,66.743 122.205 C 66.859 122.206,67.208 122.655,67.519 123.201 C 67.830 123.748,68.462 124.406,68.924 124.662 C 69.385 124.919,70.862 125.865,72.205 126.764 C 73.548 127.664,74.749 128.399,74.873 128.399 C 75.178 128.399,79.815 130.376,80.904 130.970 C 84.005 132.663,144.210 132.668,152.324 130.976 C 153.649 130.700,156.127 130.316,157.831 130.124 C 159.535 129.932,161.781 129.544,162.823 129.263 C 163.864 128.982,165.130 128.750,165.635 128.748 C 166.141 128.745,167.923 128.402,169.594 127.985 C 174.028 126.878,186.025 126.887,190.266 128.000 C 191.823 128.409,193.496 128.744,193.984 128.744 C 194.472 128.744,195.293 128.962,195.810 129.229 C 196.326 129.496,197.597 129.948,198.633 130.233 C 199.669 130.517,201.291 131.060,202.238 131.438 C 203.184 131.816,204.807 132.461,205.844 132.872 C 206.881 133.283,208.352 134.033,209.114 134.538 C 209.876 135.043,210.926 135.676,211.448 135.946 C 211.970 136.215,213.766 137.550,215.440 138.912 C 218.061 141.046,219.505 142.058,222.031 143.532 C 228.165 147.112,240.586 148.501,247.119 146.338 C 248.327 145.938,249.534 145.611,249.802 145.611 C 250.680 145.611,255.628 142.800,257.149 141.436 C 257.967 140.703,258.748 140.103,258.883 140.103 C 259.154 140.103,262.995 135.503,262.995 135.179 C 262.995 135.070,263.604 134.002,264.349 132.808 C 265.094 131.614,265.802 130.172,265.923 129.604 C 266.044 129.036,266.355 128.029,266.614 127.367 C 267.715 124.553,268.256 111.550,267.413 108.156 C 265.799 101.652,257.514 100.322,254.130 106.024 C 253.257 107.495,253.198 107.888,252.968 113.769 C 252.643 122.113,251.990 124.197,248.563 127.832 C 242.923 133.814,234.480 133.988,228.005 128.256 C 223.436 124.211,221.663 115.363,223.240 104.475 C 223.514 102.582,223.742 100.249,223.745 99.290 C 223.749 98.332,224.045 96.396,224.402 94.987 C 224.760 93.579,225.154 91.730,225.278 90.878 C 226.078 85.389,230.544 74.815,234.469 69.119 C 234.823 68.606,235.112 68.113,235.112 68.025 C 235.112 67.754,237.871 63.686,240.157 60.585 C 241.344 58.976,242.867 56.885,243.542 55.938 C 249.738 47.251,254.505 42.682,261.994 38.255 C 263.018 37.650,264.088 37.017,264.372 36.849 C 264.656 36.681,265.972 36.123,267.298 35.610 C 268.623 35.096,270.172 34.478,270.740 34.236 C 272.701 33.401,276.600 32.381,279.174 32.030 C 280.594 31.837,282.220 31.535,282.788 31.360 C 284.520 30.824,294.443 30.914,296.845 31.487 M322.892 175.540 C 324.122 175.914,326.601 176.639,328.399 177.151 C 334.042 178.757,336.725 179.714,339.403 181.078 C 341.733 182.264,342.609 182.907,345.611 185.632 C 349.320 188.998,354.293 197.061,355.835 202.205 C 357.825 208.846,358.729 225.916,357.334 230.500 C 354.637 239.364,343.121 239.817,338.210 231.252 C 331.401 219.379,325.607 216.367,318.782 221.153 C 312.165 225.792,310.143 226.137,307.269 223.114 L 306.277 222.070 306.329 217.661 C 306.358 215.237,306.532 211.936,306.716 210.327 C 306.901 208.718,307.211 205.465,307.407 203.098 C 309.256 180.710,309.282 180.547,311.498 177.675 C 313.569 174.992,318.217 174.121,322.892 175.540 M161.446 268.077 C 166.174 269.569,173.568 278.515,175.596 285.198 C 175.998 286.523,176.549 288.227,176.820 288.985 C 178.195 292.832,178.293 304.532,176.971 307.067 C 174.304 312.185,168.135 313.833,163.332 310.711 C 161.187 309.317,160.857 309.000,156.627 304.276 C 155.207 302.690,152.874 300.150,151.443 298.631 C 143.569 290.273,138.017 284.164,135.914 281.545 L 134.187 279.393 134.305 276.389 C 134.460 272.445,137.194 269.111,141.308 267.849 C 143.336 267.227,159.324 267.408,161.446 268.077 " stroke="none" fill="#ffffff" fill-rule="evenodd"></path></g></svg>